D:\school\WTK\thesis\model\3dpredictsim\Results\batch_windlass\Pog_s1_tmt_bCst_d00_k1000_WL20_ig24_pas_GRF.mot
nRows=10
nColumns=19

name D:\school\WTK\thesis\model\3dpredictsim\Results\batch_windlass\Pog_s1_tmt_bCst_d00_k1000_WL20_ig24_pas_GRF.mot
datacolumns 19
datarows 10
range 0.0000000000 0.0967273721
endheader
time 	ground_force_vx	ground_force_vy	ground_force_vz	ground_force_px	ground_force_py	ground_force_pz	1_ground_force_vx	1_ground_force_vy	1_ground_force_vz	1_ground_force_px	1_ground_force_py	1_ground_force_pz	ground_torque_x	ground_torque_y	ground_torque_z	1_ground_torque_x	1_ground_torque_y	1_ground_torque_z
        0.0000000000	      -81.1261721470	       72.5691099271	       35.1190409981	        0.1399867537	        0.0000000000	        0.0412094979	       85.9122672684	      432.2115423585	       -3.7903352947	       -0.3263790952	        0.0000000000	       -0.0315121731	        0.0000000000	        0.0000000000	        0.0000000000	        0.0000000000	        0.0000000000	        0.0000000000	
        0.0107474858	     -111.9877186748	      141.9911858592	       80.9418066395	        0.1479795692	        0.0000000000	        0.0397089288	       57.4687366553	      333.6168450301	      -12.9768912031	       -0.3202931789	        0.0000000000	       -0.0290459289	        0.0000000000	        0.0000000000	        0.0000000000	        0.0000000000	        0.0000000000	        0.0000000000	
        0.0214949716	      -53.7045915292	      295.6365960316	       37.3668015723	        0.1573374000	        0.0000000000	        0.0387892318	       25.8202206391	      223.6828210860	      -14.2204508676	       -0.3090734715	        0.0000000000	       -0.0234560287	        0.0000000000	        0.0000000000	        0.0000000000	        0.0000000000	        0.0000000000	        0.0000000000	
        0.0322424574	      -54.5930394736	      518.8823569439	        0.6324652889	        0.1669677154	        0.0000000000	        0.0407054627	        6.4444252130	      153.4934991644	      -13.8516923944	       -0.2966694841	        0.0000000000	       -0.0162414125	        0.0000000000	        0.0000000000	        0.0000000000	        0.0000000000	        0.0000000000	        0.0000000000	
        0.0429899432	      -70.2670640782	      709.5346707016	      -12.5494677963	        0.1738103753	        0.0000000000	        0.0422630083	       -2.1794007398	      122.3715615110	      -11.7690105718	       -0.2970951101	        0.0000000000	       -0.0163765793	        0.0000000000	        0.0000000000	        0.0000000000	        0.0000000000	        0.0000000000	        0.0000000000	
        0.0537374290	     -104.6097062696	      840.2739974188	      -16.8305715412	        0.1805916736	        0.0000000000	        0.0431224187	       -7.4739811202	       81.9927685010	       -8.8198745482	       -0.2968991359	        0.0000000000	       -0.0162408665	        0.0000000000	        0.0000000000	        0.0000000000	        0.0000000000	        0.0000000000	        0.0000000000	
        0.0644849147	     -114.6413062542	      923.7039072118	      -18.1309372190	        0.1873688640	        0.0000000000	        0.0429633555	      -14.2958015416	       35.3822163515	       -4.6312433020	       -0.2978827059	        0.0000000000	       -0.0161040977	        0.0000000000	        0.0000000000	        0.0000000000	        0.0000000000	        0.0000000000	        0.0000000000	
        0.0752324005	     -119.2303299766	      942.0609224003	      -17.4745476052	        0.1945594120	        0.0000000000	        0.0424960120	        0.1212867936	       -0.1184232321	       -0.0030072233	        0.0000000000	        0.0000000000	        0.0000000000	        0.0000000000	        0.0000000000	        0.0000000000	        0.0000000000	        0.0000000000	        0.0000000000	
        0.0859798863	     -106.8443294820	      899.7198385476	      -16.4215683420	        0.1988792880	        0.0000000000	        0.0420148589	        0.0002151031	       -0.0001742507	       -0.0000148833	        0.0000000000	        0.0000000000	        0.0000000000	        0.0000000000	        0.0000000000	        0.0000000000	        0.0000000000	        0.0000000000	        0.0000000000	
        0.0967273721	      -89.5111506629	      833.4845935284	      -16.1890484558	        0.2019925858	        0.0000000000	        0.0417051800	        0.0000694961	       -0.0000496078	       -0.0000052675	        0.0000000000	        0.0000000000	        0.0000000000	        0.0000000000	        0.0000000000	        0.0000000000	        0.0000000000	        0.0000000000	        0.0000000000	
